<svg width="191" height="191" viewBox="0 0 191 191" fill="none" xmlns="http://www.w3.org/2000/svg">
<path d="M191 15.9167V71.625C191 73.7804 190.212 75.6456 188.637 77.2207C187.062 78.7958 185.197 79.5833 183.042 79.5833H127.333C123.852 79.5833 121.406 77.9253 119.997 74.6094C118.587 71.3763 119.168 68.5163 121.738 66.0293L138.898 48.8691C126.629 37.5119 112.163 31.8333 95.5 31.8333C86.8785 31.8333 78.6507 33.512 70.8167 36.8695C62.9827 40.2269 56.2057 44.7656 50.4857 50.4857C44.7656 56.2057 40.2269 62.9827 36.8695 70.8167C33.512 78.6507 31.8333 86.8785 31.8333 95.5C31.8333 104.122 33.512 112.349 36.8695 120.183C40.2269 128.017 44.7656 134.794 50.4857 140.514C56.2057 146.234 62.9827 150.773 70.8167 154.131C78.6507 157.488 86.8785 159.167 95.5 159.167C105.365 159.167 114.691 157.011 123.479 152.701C132.266 148.39 139.685 142.297 145.737 134.421C146.317 133.592 147.271 133.095 148.597 132.929C149.84 132.929 150.877 133.302 151.706 134.048L168.742 151.208C169.488 151.872 169.881 152.721 169.923 153.757C169.964 154.794 169.653 155.726 168.99 156.555C159.954 167.498 149.012 175.975 136.162 181.985C123.313 187.995 109.759 191 95.5 191C82.5677 191 70.2157 188.472 58.444 183.415C46.6723 178.358 36.5171 171.56 27.9785 163.021C19.4399 154.483 12.6421 144.328 7.58529 132.556C2.52843 120.784 0 108.432 0 95.5C0 82.5677 2.52843 70.2157 7.58529 58.444C12.6421 46.6723 19.4399 36.5171 27.9785 27.9785C36.5171 19.4399 46.6723 12.6421 58.444 7.58529C70.2157 2.52843 82.5677 0 95.5 0C107.686 0 119.479 2.30046 130.877 6.90137C142.276 11.5023 152.41 17.9891 161.281 26.362L177.446 10.321C179.85 7.75109 182.752 7.17079 186.15 8.58008C189.383 9.98937 191 12.4349 191 15.9167Z" fill="#ACACAC"/>
</svg>
